<?xml version="1.0" encoding="utf-8"?>
<!-- Generator: Adobe Illustrator 24.1.0, SVG Export Plug-In . SVG Version: 6.00 Build 0)  -->
<svg version="1.1" id="Layer_1" xmlns="http://www.w3.org/2000/svg" xmlns:xlink="http://www.w3.org/1999/xlink" x="0px" y="0px"
	 viewBox="0 0 333.1 320.3" style="enable-background:new 0 0 333.1 320.3;" xml:space="preserve">
<style type="text/css">
	.st0{fill:#FF5100;}
</style>
<path class="st0" d="M319.4,249.4c-6.6,0-13.2,4.5-13.2,13s6.7,13,13.2,13s13.1-4.5,13.1-13C332.6,253.8,325.9,249.4,319.4,249.4z
	 M327.1,270.1c-2,2-4.7,3.1-7.6,3c-6.2,0-10.7-4.5-10.7-10.6s4.5-10.6,10.7-10.6c2.8-0.1,5.6,1,7.6,3s3.2,4.7,3.1,7.5
	C330.3,265.2,329.1,267.9,327.1,270.1z M45.7,281.9v-0.2c5.8-2.1,9.7-7.6,9.6-13.7c0-14.9-13.6-17.4-24.9-17.4H9.7
	c-5.5,0-9.1,2.2-9.1,9v49.5c0,6.8,3.6,9,9.1,9h22.8c13.4,0,25.1-5.9,25.1-20C57.6,288.9,52.9,283.8,45.7,281.9z M16.1,261.8h12.3
	c5.8,0,11.3,1.7,11.3,8.2c0,5.4-3.5,8.3-10.8,8.3H16.1V261.8z M29.2,306.2H16.1V288h11.2c7.6,0,14.8,1.1,14.8,9.2
	C42.1,305,35.3,306.2,29.2,306.2z M65,257.2L65,257.2c0-2.1,0.9-4.1,2.4-5.6s3.5-2.3,5.6-2.3c4.4,0,7.9,3.5,7.9,7.9
	c0,4.3-3.6,7.8-7.9,7.8C68.5,265,65,261.5,65,257.2z M66,311.5v-34.3c0-3.7,1.5-6.8,6.9-6.8s6.9,3.2,6.9,6.8v34.3
	c0,3.7-1.5,6.8-6.9,6.8C67.5,318.4,66,315.2,66,311.5z M113.6,267.8c-16.7,0-25.6,11.3-25.6,25.7c0,13.7,6.7,25.8,25.6,25.8
	c18.9,0,25.6-12.1,25.6-25.8C139.3,279,130.3,267.8,113.6,267.8z M113.6,309.1c-8.2,0-11.7-7.3-11.7-15.6c0-8.9,3.6-15.5,11.7-15.5
	c8,0,11.7,6.6,11.7,15.5C125.3,301.8,121.9,309.1,113.6,309.1z M154.3,285.7h15.6c4.3,0,7.7,1.7,7.7,6.5s-3.4,6.5-7.7,6.5h-15.6
	c-4.3,0-7.7-1.7-7.7-6.5S150,285.7,154.3,285.7z M218.6,248.9c-22.4,0-34.5,14.7-34.5,34.5c0,20.5,10,36.2,34.5,36.2
	c23.3,0,34.5-17.2,34.5-36.2C253.1,263.7,240.9,249,218.6,248.9z M218.6,307.2c-14.5,0-18.9-10.9-18.9-23.8s6.2-22.1,18.9-22.1
	c12.6,0,18.9,9.2,18.9,22.1C237.4,296.4,232.6,307.2,218.6,307.2z M260.6,257.2c0-2.1,0.8-4.1,2.3-5.6s3.5-2.3,5.6-2.3
	c4.4,0,7.9,3.5,7.9,7.8s-3.6,7.8-7.9,7.8S260.6,261.5,260.6,257.2z M261.6,311.5v-34.3c0-3.7,1.5-6.8,6.9-6.8s6.9,3.2,6.9,6.8v34.3
	c0,3.7-1.5,6.8-6.9,6.8C263.1,318.4,261.6,315.2,261.6,311.5z M298.9,311.5L298.9,311.5c0,4.5-2.7,6.8-6.9,6.8
	c-4.2,0-6.9-2.3-6.9-6.8v-55.3c0-4.5,2.7-6.8,6.9-6.8c4.2,0,6.9,2.3,6.9,6.8V311.5z M321.6,263.3h0.8c1.5-0.1,3.1-1.4,3.1-3.9
	c0-2.9-1.5-4.1-5.1-4.1h-4.8c-0.3-0.1-0.6,0.1-0.9,0.3s-0.4,0.6-0.4,0.9V268c-0.1,0.4,0.1,0.7,0.3,1c0.3,0.3,0.6,0.4,1,0.4
	s0.8-0.1,1-0.4c0.2-0.3,0.3-0.6,0.3-1v-4.8h1.6l3.6,5.1c0.6,0.8,1,1,1.6,1s1.1-0.3,1.3-0.8c0-0.5-0.1-0.9-0.4-1.3L321.6,263.3z
	 M316.8,261.3v-4.2h3.3c1.7,0,2.5,0.7,2.5,2.1s-0.9,2.1-2.5,2.1L316.8,261.3L316.8,261.3z M93,0.8c3.6,0,6.5,2.9,6.5,6.4
	s-2.9,6.4-6.5,6.4h-9.5c-2.4,0.1-4.6-1.1-5.8-3.1S76.5,6,77.7,4s3.4-3.2,5.8-3.1L93,0.8L93,0.8z M88.3,19.1c3.6,0,6.5,2.9,6.5,6.4
	s-2.9,6.4-6.5,6.4H61.6c-2.4,0.1-4.6-1.1-5.8-3.1s-1.2-4.5,0-6.5s3.4-3.2,5.8-3.1L88.3,19.1L88.3,19.1z M90.4,37.5
	c3.6,0,6.5,2.9,6.5,6.4s-2.9,6.4-6.5,6.4H44.3c-2.4,0.1-4.6-1.1-5.8-3.1s-1.2-4.5,0-6.5s3.4-3.2,5.8-3.1L90.4,37.5L90.4,37.5z
	 M102.5,55.8c3.6,0,6.5,2.9,6.5,6.4c0,3.5-2.9,6.4-6.5,6.4H31c-2.4,0.1-4.6-1.1-5.8-3.1c-1.2-2-1.2-4.5,0-6.5s3.4-3.2,5.8-3.1
	L102.5,55.8L102.5,55.8z M123.6,74.1c3.6,0,6.5,2.9,6.5,6.4c0,1.7-0.7,3.3-1.9,4.5c-1.2,1.2-2.9,1.9-4.6,1.9H20.2
	c-2.4,0.1-4.6-1.1-5.8-3.1s-1.2-4.5,0-6.5s3.4-3.2,5.8-3.1L123.6,74.1L123.6,74.1z M139.5,92.5c3.6,0,6.5,2.9,6.5,6.4
	s-2.9,6.4-6.5,6.4h-127c-2.4,0.1-4.6-1.1-5.8-3.1s-1.2-4.5,0-6.5s3.4-3.2,5.8-3.1L139.5,92.5L139.5,92.5z M146.7,110.8
	c3.6,0,6.5,2.9,6.5,6.4s-2.9,6.4-6.5,6.4H7.9c-2.4,0.1-4.6-1.1-5.8-3.1s-1.2-4.5,0-6.5s3.4-3.2,5.8-3.1L146.7,110.8L146.7,110.8z
	 M147.7,129.1c3.6,0,6.5,2.9,6.5,6.4s-2.9,6.4-6.5,6.4H7.3c-2.4,0.1-4.6-1.1-5.8-3.1s-1.2-4.5,0-6.5s3.4-3.2,5.8-3.1L147.7,129.1
	L147.7,129.1z M144.7,147.5c3.6,0,6.5,2.9,6.5,6.4s-2.9,6.4-6.5,6.4H10.3c-3.5-0.1-6.3-2.9-6.3-6.4s2.8-6.3,6.3-6.4H144.7z
	 M137,165.8c3.6,0,6.5,2.9,6.5,6.4s-2.9,6.4-6.5,6.4H18c-2.4,0.1-4.6-1.1-5.8-3.1s-1.2-4.5,0-6.5s3.4-3.2,5.8-3.1L137,165.8
	L137,165.8z M123.2,184.1c3.6,0,6.5,2.9,6.5,6.4s-2.9,6.4-6.5,6.4H31.8c-2.4,0.1-4.6-1.1-5.8-3.1s-1.2-4.5,0-6.5s3.4-3.2,5.8-3.1
	L123.2,184.1L123.2,184.1z M92.6,202.5c3.6,0,6.5,2.9,6.5,6.4s-2.9,6.4-6.5,6.4H62.4c-2.4,0.1-4.6-1.1-5.8-3.1s-1.2-4.5,0-6.5
	s3.4-3.2,5.8-3.1L92.6,202.5L92.6,202.5z"/>
</svg>
