<svg xmlns="http://www.w3.org/2000/svg" xmlns:xlink="http://www.w3.org/1999/xlink" viewBox="0 0 64 62"><defs><style>.cls-1{fill:url(#radial-gradient);}.cls-2{fill:url(#radial-gradient-2);}.cls-3{fill:url(#radial-gradient-3);}.cls-4{fill:url(#radial-gradient-4);}.cls-5{fill:url(#radial-gradient-5);}.cls-6{fill:url(#radial-gradient-6);}.cls-7{fill:url(#radial-gradient-7);}.cls-8{fill:url(#radial-gradient-8);}.cls-9{fill:url(#radial-gradient-9);}.cls-10{fill:url(#radial-gradient-10);}.cls-11{fill:url(#radial-gradient-11);}.cls-12{fill:url(#radial-gradient-12);}</style><radialGradient id="radial-gradient" cx="29.24" cy="12.05" r="1.91" gradientUnits="userSpaceOnUse"><stop offset="0" stop-color="#fd5d32"/><stop offset="0.87" stop-color="#fd5d32"/></radialGradient><radialGradient id="radial-gradient-2" cx="26.46" cy="15.86" r="3.08" xlink:href="#radial-gradient"/><radialGradient id="radial-gradient-3" cx="24.89" cy="19.66" r="4.45" xlink:href="#radial-gradient"/><radialGradient id="radial-gradient-4" cx="24.76" cy="23.47" r="6.29" xlink:href="#radial-gradient"/><radialGradient id="radial-gradient-5" cx="25.84" cy="27.28" r="8.62" xlink:href="#radial-gradient"/><radialGradient id="radial-gradient-6" cx="26.69" cy="31.09" r="10.35" xlink:href="#radial-gradient"/><radialGradient id="radial-gradient-7" cx="26.95" cy="34.91" r="11.2" xlink:href="#radial-gradient"/><radialGradient id="radial-gradient-8" cx="27" cy="38.71" r="11.32" xlink:href="#radial-gradient"/><radialGradient id="radial-gradient-9" cx="27.05" cy="42.52" r="10.85" xlink:href="#radial-gradient"/><radialGradient id="radial-gradient-10" cx="27" cy="46.33" r="9.75" xlink:href="#radial-gradient"/><radialGradient id="radial-gradient-11" cx="27" cy="50.14" r="7.74" xlink:href="#radial-gradient"/><radialGradient id="radial-gradient-12" cx="27" cy="53.95" r="3.32" xlink:href="#radial-gradient"/></defs><title>Flame</title><g id="Login"><path class="cls-1" d="M30.24,10.72a1.33,1.33,0,1,1,0,2.65h-2a1.33,1.33,0,0,1-1.2-.65,1.31,1.31,0,0,1,0-1.35,1.33,1.33,0,0,1,1.2-.65Z"/><path class="cls-2" d="M29.26,14.53a1.33,1.33,0,1,1,0,2.65H23.71a1.33,1.33,0,0,1-1.2-.65,1.31,1.31,0,0,1,0-1.35,1.33,1.33,0,0,1,1.2-.65Z"/><path class="cls-3" d="M29.71,18.34a1.33,1.33,0,1,1,0,2.65H20.13a1.33,1.33,0,0,1-1.2-.65,1.27,1.27,0,0,1,0-1.35,1.33,1.33,0,0,1,1.2-.65Z"/><path class="cls-4" d="M32.21,22.15a1.33,1.33,0,1,1,0,2.65H17.36a1.35,1.35,0,0,1-1.21-.65,1.31,1.31,0,0,1,0-1.35,1.35,1.35,0,0,1,1.21-.65Z"/><path class="cls-5" d="M36.61,26A1.33,1.33,0,0,1,38,27.28a1.31,1.31,0,0,1-.4.95,1.37,1.37,0,0,1-.95.38H15.11a1.33,1.33,0,0,1-1.2-.65,1.31,1.31,0,0,1,0-1.35,1.33,1.33,0,0,1,1.2-.65Z"/><path class="cls-6" d="M39.92,29.77a1.33,1.33,0,1,1,0,2.65H13.5a1.33,1.33,0,0,1-1.2-.65,1.31,1.31,0,0,1,0-1.35,1.33,1.33,0,0,1,1.2-.65Z"/><path class="cls-7" d="M41.39,33.58a1.35,1.35,0,0,1,1.35,1.33,1.33,1.33,0,0,1-1.35,1.32H12.56a1.33,1.33,0,0,1-1.2-.65,1.31,1.31,0,0,1,0-1.35,1.33,1.33,0,0,1,1.2-.65Z"/><path class="cls-8" d="M41.62,37.39a1.33,1.33,0,1,1,0,2.65H12.43a1.33,1.33,0,0,1-1.2-.65,1.31,1.31,0,0,1,0-1.35,1.33,1.33,0,0,1,1.2-.65Z"/><path class="cls-9" d="M41,41.2a1.33,1.33,0,1,1,0,2.65H13.06a1.33,1.33,0,0,1,0-2.65Z"/><path class="cls-10" d="M39.38,45a1.33,1.33,0,1,1,0,2.65H14.66a1.33,1.33,0,0,1-1.2-.65,1.31,1.31,0,0,1,0-1.35,1.33,1.33,0,0,1,1.2-.65Z"/><path class="cls-11" d="M36.51,48.81a1.33,1.33,0,1,1,0,2.66h-19a1.33,1.33,0,0,1-1.2-.65,1.31,1.31,0,0,1,0-1.35,1.36,1.36,0,0,1,1.2-.66Z"/><path class="cls-12" d="M30.15,52.63a1.33,1.33,0,1,1,0,2.65H23.89a1.33,1.33,0,0,1-1.2-.65,1.31,1.31,0,0,1,0-1.35,1.33,1.33,0,0,1,1.2-.65Z"/></g></svg>