<svg xmlns="http://www.w3.org/2000/svg" xmlns:xlink="http://www.w3.org/1999/xlink" viewBox="0 0 80 80"><defs><style>.cls-1{fill:#fff;}.cls-2{fill:url(#radial-gradient);}.cls-3{fill:url(#radial-gradient-2);}.cls-4{fill:url(#radial-gradient-3);}.cls-5{fill:url(#radial-gradient-4);}.cls-6{fill:url(#radial-gradient-5);}.cls-7{fill:url(#radial-gradient-6);}.cls-8{fill:url(#radial-gradient-7);}.cls-9{fill:url(#radial-gradient-8);}.cls-10{fill:url(#radial-gradient-9);}.cls-11{fill:url(#radial-gradient-10);}.cls-12{fill:url(#radial-gradient-11);}.cls-13{fill:url(#radial-gradient-12);}</style><radialGradient id="radial-gradient" cx="42.24" cy="19.05" r="1.91" gradientUnits="userSpaceOnUse"><stop offset="0" stop-color="#fd5d32"/><stop offset="0.87" stop-color="#fd5d32"/></radialGradient><radialGradient id="radial-gradient-2" cx="39.46" cy="22.86" r="3.08" xlink:href="#radial-gradient"/><radialGradient id="radial-gradient-3" cx="37.89" cy="26.66" r="4.45" xlink:href="#radial-gradient"/><radialGradient id="radial-gradient-4" cx="37.76" cy="30.47" r="6.29" xlink:href="#radial-gradient"/><radialGradient id="radial-gradient-5" cx="38.84" cy="34.28" r="8.62" xlink:href="#radial-gradient"/><radialGradient id="radial-gradient-6" cx="39.69" cy="38.09" r="10.35" xlink:href="#radial-gradient"/><radialGradient id="radial-gradient-7" cx="39.95" cy="41.91" r="11.2" xlink:href="#radial-gradient"/><radialGradient id="radial-gradient-8" cx="40" cy="45.71" r="11.32" xlink:href="#radial-gradient"/><radialGradient id="radial-gradient-9" cx="40.05" cy="49.52" r="10.85" xlink:href="#radial-gradient"/><radialGradient id="radial-gradient-10" cx="40" cy="53.33" r="9.75" xlink:href="#radial-gradient"/><radialGradient id="radial-gradient-11" cx="40" cy="57.14" r="7.74" xlink:href="#radial-gradient"/><radialGradient id="radial-gradient-12" cx="40" cy="60.95" r="3.32" xlink:href="#radial-gradient"/></defs><title>Flame</title><g id="Login"><circle class="cls-1" cx="40" cy="40" r="40"/><path class="cls-2" d="M43.24,17.72a1.33,1.33,0,1,1,0,2.65h-2a1.33,1.33,0,0,1-1.2-.65,1.31,1.31,0,0,1,0-1.35,1.33,1.33,0,0,1,1.2-.65Z"/><path class="cls-3" d="M42.26,21.53a1.33,1.33,0,1,1,0,2.65H36.71a1.33,1.33,0,0,1-1.2-.65,1.31,1.31,0,0,1,0-1.35,1.33,1.33,0,0,1,1.2-.65Z"/><path class="cls-4" d="M42.71,25.34a1.33,1.33,0,1,1,0,2.65H33.13a1.33,1.33,0,0,1-1.2-.65,1.27,1.27,0,0,1,0-1.35,1.33,1.33,0,0,1,1.2-.65Z"/><path class="cls-5" d="M45.21,29.15a1.33,1.33,0,1,1,0,2.65H30.36a1.35,1.35,0,0,1-1.21-.65,1.31,1.31,0,0,1,0-1.35,1.35,1.35,0,0,1,1.21-.65Z"/><path class="cls-6" d="M49.61,33A1.33,1.33,0,0,1,51,34.28a1.31,1.31,0,0,1-.4.95,1.37,1.37,0,0,1-.95.38H28.11a1.33,1.33,0,0,1-1.2-.65,1.31,1.31,0,0,1,0-1.35,1.33,1.33,0,0,1,1.2-.65Z"/><path class="cls-7" d="M52.92,36.77a1.33,1.33,0,1,1,0,2.65H26.5a1.33,1.33,0,0,1-1.2-.65,1.31,1.31,0,0,1,0-1.35,1.33,1.33,0,0,1,1.2-.65Z"/><path class="cls-8" d="M54.39,40.58a1.35,1.35,0,0,1,1.35,1.33,1.33,1.33,0,0,1-1.35,1.32H25.56a1.33,1.33,0,0,1-1.2-.65,1.31,1.31,0,0,1,0-1.35,1.33,1.33,0,0,1,1.2-.65Z"/><path class="cls-9" d="M54.62,44.39a1.33,1.33,0,1,1,0,2.65H25.43a1.33,1.33,0,0,1-1.2-.65,1.31,1.31,0,0,1,0-1.35,1.33,1.33,0,0,1,1.2-.65Z"/><path class="cls-10" d="M54,48.2a1.33,1.33,0,1,1,0,2.65H26.06a1.33,1.33,0,0,1,0-2.65Z"/><path class="cls-11" d="M52.38,52a1.33,1.33,0,1,1,0,2.65H27.66a1.33,1.33,0,0,1-1.2-.65,1.31,1.31,0,0,1,0-1.35,1.33,1.33,0,0,1,1.2-.65Z"/><path class="cls-12" d="M49.51,55.81a1.33,1.33,0,1,1,0,2.66h-19a1.33,1.33,0,0,1-1.2-.65,1.31,1.31,0,0,1,0-1.35,1.36,1.36,0,0,1,1.2-.66Z"/><path class="cls-13" d="M43.15,59.63a1.33,1.33,0,1,1,0,2.65H36.89a1.33,1.33,0,0,1-1.2-.65,1.31,1.31,0,0,1,0-1.35,1.33,1.33,0,0,1,1.2-.65Z"/></g></svg>